<svg version="1.1" preserveAspectRatio="none" xmlns="http://www.w3.org/2000/svg" width="500" height="500" viewBox="0 0 500 500"><rect width="100%" height="100%" fill="#14051E" fill-opacity="1"/><svg viewBox="78.3749 229.145 373.3437 287.238" width="333" height="256.19892340489474" x="83.5px" y="121.9005px" xmlns="http://www.w3.org/2000/svg" xmlns:xlink="http://www.w3.org/1999/xlink" preserveAspectRatio="none"><defs></defs><style>.aD6z1nYkhcolor {fill:#D6C7F4;fill-opacity:1;}.icon1 {fill:#907DB3;fill-opacity:1;}.icon2 {fill:#D6C7F4;fill-opacity:1;}.icon3 {fill:#6A588A;fill-opacity:1;}.icon3-str {stroke:#6A588A;stroke-opacity:1;}</style><g opacity="1" transform="rotate(0 78.3749 456.383)">
<svg width="373.3437" height="60" x="78.3749" y="456.383" version="1.1" preserveAspectRatio="none" viewBox="2.8 -29.68 186.92 30.04">
  <g transform="matrix(1 0 0 1 0 0)" class="aD6z1nYkhcolor"><path id="id-D6z1nYkh8" d="M10.64-6.12L25.28-6.12L25.28 0L2.80 0L2.80-28L24.76-28L24.76-21.88L10.64-21.88L10.64-17.16L23.08-17.16L23.08-11.24L10.64-11.24L10.64-6.12Z M40.32 0.36Q36.72 0.36 33.88-1.08Q31.04-2.52 29.46-5.08Q27.88-7.64 27.88-10.88L27.88-10.88Q27.88-14.12 29.46-16.66Q31.04-19.20 33.88-20.62Q36.72-22.04 40.32-22.04L40.32-22.04Q44-22.04 46.68-20.46Q49.36-18.88 50.48-16.08L50.48-16.08L44.60-13.08Q43.12-16 40.28-16L40.28-16Q38.24-16 36.90-14.64Q35.56-13.28 35.56-10.88L35.56-10.88Q35.56-8.44 36.90-7.06Q38.24-5.68 40.28-5.68L40.28-5.68Q43.12-5.68 44.60-8.60L44.60-8.60L50.48-5.60Q49.36-2.80 46.68-1.22Q44 0.36 40.32 0.36L40.32 0.36Z M64 0.36Q60.52 0.36 57.72-1.08Q54.92-2.52 53.34-5.08Q51.76-7.64 51.76-10.88L51.76-10.88Q51.76-14.08 53.34-16.64Q54.92-19.20 57.70-20.62Q60.48-22.04 64-22.04L64-22.04Q67.52-22.04 70.32-20.62Q73.12-19.20 74.68-16.66Q76.24-14.12 76.24-10.88L76.24-10.88Q76.24-7.64 74.68-5.08Q73.12-2.52 70.32-1.08Q67.52 0.36 64 0.36L64 0.36ZM64-5.68Q66-5.68 67.28-7.06Q68.56-8.44 68.56-10.88L68.56-10.88Q68.56-13.28 67.28-14.64Q66-16 64-16L64-16Q62-16 60.72-14.64Q59.44-13.28 59.44-10.88L59.44-10.88Q59.44-8.44 60.72-7.06Q62-5.68 64-5.68L64-5.68Z M92.84-6.20L94.72-0.88Q93.76-0.28 92.38 0.04Q91 0.36 89.44 0.36L89.44 0.36Q85.20 0.36 82.92-1.72Q80.64-3.80 80.64-7.92L80.64-7.92L80.64-15.20L77.48-15.20L77.48-20.88L80.64-20.88L80.64-26.52L88.24-26.52L88.24-20.88L93.20-20.88L93.20-15.20L88.24-15.20L88.24-8Q88.24-6.84 88.86-6.18Q89.48-5.52 90.52-5.52L90.52-5.52Q91.84-5.52 92.84-6.20L92.84-6.20Z M104.88-19.08Q106.04-20.56 107.90-21.30Q109.76-22.04 112.16-22.04L112.16-22.04L112.16-15.20Q111.12-15.32 110.44-15.32L110.44-15.32Q108.00-15.32 106.62-14Q105.24-12.68 105.24-9.96L105.24-9.96L105.24 0L97.64 0L97.64-21.68L104.88-21.68L104.88-19.08Z M124.36-22.04Q129.76-22.04 132.60-19.58Q135.44-17.12 135.44-12.04L135.44-12.04L135.44 0L128.36 0L128.36-2.80Q126.72 0.36 121.96 0.36L121.96 0.36Q119.44 0.36 117.60-0.52Q115.76-1.40 114.82-2.90Q113.88-4.40 113.88-6.32L113.88-6.32Q113.88-9.40 116.24-11.10Q118.60-12.80 123.52-12.80L123.52-12.80L127.84-12.80Q127.64-16.24 123.24-16.24L123.24-16.24Q121.68-16.24 120.08-15.74Q118.48-15.24 117.36-14.36L117.36-14.36L114.80-19.52Q116.60-20.72 119.18-21.38Q121.76-22.04 124.36-22.04L124.36-22.04ZM124.08-4.44Q125.40-4.44 126.40-5.08Q127.40-5.72 127.84-6.96L127.84-6.96L127.84-8.84L124.56-8.84Q121.24-8.84 121.24-6.64L121.24-6.64Q121.24-5.64 122-5.04Q122.76-4.44 124.08-4.44L124.08-4.44Z M151.64 0.36Q148.04 0.36 145.20-1.08Q142.36-2.52 140.78-5.08Q139.20-7.64 139.20-10.88L139.20-10.88Q139.20-14.12 140.78-16.66Q142.36-19.20 145.20-20.62Q148.04-22.04 151.64-22.04L151.64-22.04Q155.32-22.04 158.00-20.46Q160.68-18.88 161.80-16.08L161.80-16.08L155.92-13.08Q154.44-16 151.60-16L151.60-16Q149.56-16 148.22-14.64Q146.88-13.28 146.88-10.88L146.88-10.88Q146.88-8.44 148.22-7.06Q149.56-5.68 151.60-5.68L151.60-5.68Q154.44-5.68 155.92-8.60L155.92-8.60L161.80-5.60Q160.68-2.80 158.00-1.22Q155.32 0.36 151.64 0.36L151.64 0.36Z M180.52 0L174.44-7.60L172.20-5.32L172.20 0L164.60 0L164.60-29.68L172.20-29.68L172.20-14.12L179.96-21.68L188.96-21.68L179.96-12.40L189.72 0L180.52 0Z"/></g>
</svg>
</g><g opacity="1" transform="rotate(0 171.7108 229.145)">
<svg width="186.6719" height="197.238" x="171.7108" y="229.145" version="1.1" preserveAspectRatio="none" viewBox="20.5 16 159 168">
  <g transform="matrix(1 0 0 1 0 0)"><g><path d="M179.5 120.5L118.8 93l.2-.5 51-29.3-.9-1.6-48.8 28.2 20.8-30.6-1.5-1-18.8 27.6 12.9-47.6-1.6-.4-14.3 52.5-.4.5L116 16h-1.8l1.4 73.6-25.4-44.9-1.5.9L114.4 91 21.3 48.8l-.8 1.6L114.6 93l-39.5 22.7.9 1.5 38.5-22.1L66 166.4l1.4 1.1 48.3-71.1v1.3l-23.2 85.8 1.7.5 21.7-80 .8 48 1.8-.1-1-53.9.2-1 41.2 72.6 1.5-.8-41.8-73.9 60.1 27.2.8-1.6z" data-color="1" class="icon1"></path></g></g>
</svg>
</g></svg></svg>